<mxfile host="app.diagrams.net" agent="Mozilla/5.0 (X11; Linux x86_64; rv:143.0) Gecko/20100101 Firefox/143.0" version="28.2.5">
  <diagram name="Page-1" id="S97H3dH8lDNiiOa8RQUa">
    <mxGraphModel dx="544" dy="306" grid="1" gridSize="10" guides="1" tooltips="1" connect="1" arrows="1" fold="1" page="1" pageScale="1" pageWidth="827" pageHeight="1169" math="1" shadow="0">
      <root>
        <mxCell id="0" />
        <mxCell id="1" parent="0" />
        <mxCell id="s-gAyY3BLTUoH7W5xHSd-2" value="$$12\ k\Omega$$" style="text;align=center;verticalAlign=middle;whiteSpace=wrap;rounded=0;convertToSvg=0;html=1;" parent="1" vertex="1">
          <mxGeometry x="180" y="87.5" width="60" height="20" as="geometry" />
        </mxCell>
        <mxCell id="s-gAyY3BLTUoH7W5xHSd-7" value="$$22\ k\Omega$$" style="text;align=center;verticalAlign=middle;whiteSpace=wrap;rounded=0;convertToSvg=0;html=1;" parent="1" vertex="1">
          <mxGeometry x="320" y="90" width="60" height="20" as="geometry" />
        </mxCell>
        <mxCell id="s-gAyY3BLTUoH7W5xHSd-4" value="" style="edgeStyle=orthogonalEdgeStyle;rounded=0;orthogonalLoop=1;jettySize=auto;html=1;endArrow=none;endFill=0;" parent="1" source="s-gAyY3BLTUoH7W5xHSd-1" target="s-gAyY3BLTUoH7W5xHSd-3" edge="1">
          <mxGeometry relative="1" as="geometry" />
        </mxCell>
        <mxCell id="s-gAyY3BLTUoH7W5xHSd-14" style="edgeStyle=orthogonalEdgeStyle;shape=connector;rounded=0;orthogonalLoop=1;jettySize=auto;html=1;exitX=0;exitY=0.5;exitDx=0;exitDy=0;exitPerimeter=0;entryX=1;entryY=0.5;entryDx=0;entryDy=0;strokeColor=default;align=center;verticalAlign=middle;fontFamily=Helvetica;fontSize=11;fontColor=default;labelBackgroundColor=default;endArrow=none;endFill=0;" parent="1" source="s-gAyY3BLTUoH7W5xHSd-1" target="s-gAyY3BLTUoH7W5xHSd-8" edge="1">
          <mxGeometry relative="1" as="geometry" />
        </mxCell>
        <mxCell id="s-gAyY3BLTUoH7W5xHSd-1" value="R&lt;sub&gt;1&lt;/sub&gt;" style="pointerEvents=1;verticalLabelPosition=top;shadow=0;dashed=0;align=center;html=1;verticalAlign=bottom;shape=mxgraph.electrical.resistors.resistor_2;labelPosition=center;" parent="1" vertex="1">
          <mxGeometry x="160" y="70" width="100" height="20" as="geometry" />
        </mxCell>
        <mxCell id="s-gAyY3BLTUoH7W5xHSd-13" style="edgeStyle=orthogonalEdgeStyle;shape=connector;rounded=0;orthogonalLoop=1;jettySize=auto;html=1;exitX=1;exitY=0.5;exitDx=0;exitDy=0;exitPerimeter=0;strokeColor=default;align=center;verticalAlign=middle;fontFamily=Helvetica;fontSize=11;fontColor=default;labelBackgroundColor=default;endArrow=none;endFill=0;entryX=0;entryY=0.5;entryDx=0;entryDy=0;" parent="1" source="s-gAyY3BLTUoH7W5xHSd-3" target="s-gAyY3BLTUoH7W5xHSd-9" edge="1">
          <mxGeometry relative="1" as="geometry">
            <mxPoint x="410" y="80" as="targetPoint" />
          </mxGeometry>
        </mxCell>
        <mxCell id="s-gAyY3BLTUoH7W5xHSd-3" value="R&lt;sub&gt;2&lt;/sub&gt;" style="pointerEvents=1;verticalLabelPosition=top;shadow=0;dashed=0;align=center;html=1;verticalAlign=bottom;shape=mxgraph.electrical.resistors.resistor_2;labelPosition=center;" parent="1" vertex="1">
          <mxGeometry x="300" y="70" width="100" height="20" as="geometry" />
        </mxCell>
        <mxCell id="s-gAyY3BLTUoH7W5xHSd-8" value="" style="verticalLabelPosition=bottom;shadow=0;dashed=0;align=center;html=1;verticalAlign=top;strokeWidth=1;shape=ellipse;perimeter=ellipsePerimeter;fontFamily=Helvetica;fontSize=11;fontColor=default;labelBackgroundColor=default;" parent="1" vertex="1">
          <mxGeometry x="125" y="72.5" width="15" height="15" as="geometry" />
        </mxCell>
        <mxCell id="s-gAyY3BLTUoH7W5xHSd-9" value="" style="verticalLabelPosition=bottom;shadow=0;dashed=0;align=center;html=1;verticalAlign=top;strokeWidth=1;shape=ellipse;perimeter=ellipsePerimeter;fontFamily=Helvetica;fontSize=11;fontColor=default;labelBackgroundColor=default;" parent="1" vertex="1">
          <mxGeometry x="414" y="72.5" width="15" height="15" as="geometry" />
        </mxCell>
      </root>
    </mxGraphModel>
  </diagram>
</mxfile>
